<svg xmlns="http://www.w3.org/2000/svg"  viewBox="0 0 50 50" width="30px" height="30px"><path d="M 22.15625 12.042969 C 21.867188 12.042969 21.652344 12.257813 21.652344 12.5625 C 21.652344 12.878906 21.882813 13.089844 22.171875 13.089844 C 30.132813 13.089844 42.648438 16.261719 42.648438 24.25 C 42.648438 30.347656 31.792969 36.878906 8.539063 36.878906 C 8.25 36.882813 8 37.109375 8 37.425781 C 8 37.75 8.234375 37.949219 8.523438 37.949219 C 9.910156 37.976563 50 39.464844 50 24.25 C 50 11.695313 22.15625 12.042969 22.15625 12.042969 Z M 6.308594 14 C 5.738281 14 5.226563 14.316406 4.96875 14.824219 L 0.15625 24.378906 C -0.0976563 24.984375 -0.0351563 25.671875 0.273438 26.140625 C 1.546875 28.558594 7.617188 30 16.515625 30 C 20.378906 30 33 29.636719 33 24.980469 C 33 20.238281 19.671875 20 17 20 C 15.535156 20 13.832031 20.078125 12.515625 20.183594 C 13.210938 18.8125 14.082031 17.070313 14.535156 16.167969 C 14.769531 15.699219 14.746094 15.15625 14.46875 14.714844 C 14.195313 14.265625 13.714844 14 13.191406 14 Z M 16.515625 24 C 21.148438 24 24 24.582031 24 24.988281 C 24 25.4375 21.148438 26 16.515625 26 C 11.878906 26 9 25.4375 9 24.988281 C 9 24.582031 11.878906 24 16.515625 24 Z" fill="#FFFFFF"/></svg>